<?xml version="1.0" standalone="no"?>
<!DOCTYPE svg PUBLIC "-//W3C//DTD SVG 20010904//EN"
 "http://www.w3.org/TR/2001/REC-SVG-20010904/DTD/svg10.dtd">
<svg version="1.0" xmlns="http://www.w3.org/2000/svg"
 width="100.000000pt" height="100.000000pt" viewBox="0 0 100.000000 100.000000"
 preserveAspectRatio="xMidYMid meet">
<metadata>
Created by potrace 1.16, written by Peter Selinger 2001-2019
</metadata>
<g transform="translate(0.000000,100.000000) scale(0.100000,-0.100000)"
fill="#000000" stroke="none">
<path d="M840 861 c0 -67 -11 -101 -31 -101 -12 0 -19 7 -19 20 0 16 -6 20
-32 19 -31 -2 -31 -2 -5 -6 28 -4 39 -33 12 -33 -8 0 -15 -4 -15 -10 0 -5 7
-10 15 -10 13 0 15 -20 15 -120 0 -113 -1 -120 -20 -120 -18 0 -20 7 -20 55 0
54 0 55 -30 55 l-30 0 0 64 c0 63 1 65 27 68 19 2 29 9 30 23 2 11 0 14 -3 8
-3 -7 -16 -13 -29 -13 -13 0 -26 6 -28 13 -3 6 -5 -55 -4 -138 0 -82 2 -124 4
-92 4 53 6 57 28 57 24 0 25 -3 25 -55 0 -54 0 -55 30 -55 25 0 30 4 30 25 0
18 5 25 20 25 15 0 20 -7 20 -25 0 -14 5 -25 10 -25 6 0 10 73 10 200 l0 200
60 0 60 0 0 -40 0 -40 -41 0 c-24 0 -38 -4 -34 -10 3 -5 17 -10 31 -10 l24 0
0 -173 c0 -183 -5 -206 -42 -184 -15 10 -21 9 -28 -3 -9 -13 -11 -13 -19 0
-12 18 -24 8 -15 -14 4 -12 19 -16 55 -16 l48 0 0 -115 0 -115 -44 0 -44 0 -4
98 -3 97 -2 -97 -2 -98 -30 0 c-29 0 -30 2 -30 45 0 41 2 45 25 45 23 0 25 3
25 50 0 40 -3 50 -17 50 -13 0 -14 -3 -5 -12 7 -7 12 -25 12 -40 0 -21 -5 -28
-20 -28 -19 0 -20 5 -17 70 4 68 3 70 -20 70 -12 0 -23 -4 -23 -10 0 -5 7 -10
15 -10 12 0 15 -19 15 -115 0 -96 -3 -115 -15 -115 -8 0 -15 -4 -15 -10 0 -5
7 -10 15 -10 8 0 15 -7 15 -15 0 -8 -9 -15 -20 -15 -19 0 -20 7 -22 153 -1 83
-3 126 -5 95 -4 -54 -6 -58 -28 -58 -22 0 -24 5 -28 58 -4 56 -4 56 -3 -8 1
-63 2 -65 29 -68 26 -3 27 -5 27 -63 0 -59 0 -59 -30 -59 -25 0 -30 -4 -30
-25 0 -18 -5 -25 -20 -25 -11 0 -20 7 -20 15 0 8 7 15 15 15 8 0 15 5 15 10 0
6 -7 10 -15 10 -12 0 -15 19 -15 115 0 96 3 115 15 115 8 0 15 5 15 10 0 6
-18 10 -40 10 -22 0 -40 -4 -40 -10 0 -5 9 -10 20 -10 19 0 20 -7 20 -115 0
-108 -1 -115 -20 -115 -11 0 -20 -4 -20 -10 0 -5 9 -10 20 -10 11 0 20 -7 20
-15 0 -9 -9 -15 -25 -15 l-25 0 0 150 c0 127 -2 150 -15 150 -8 0 -15 -7 -15
-15 0 -8 5 -15 10 -15 6 0 10 -18 10 -40 0 -33 -3 -40 -20 -40 -16 0 -20 8
-23 58 l-3 57 -2 -67 c-2 -66 -1 -68 23 -68 24 0 25 -3 25 -60 0 -57 -1 -60
-25 -60 -20 0 -25 -5 -25 -25 0 -20 -5 -25 -25 -25 -16 0 -25 6 -25 15 0 8 9
15 20 15 11 0 20 5 20 10 0 6 -9 10 -20 10 -19 0 -20 7 -20 115 0 93 3 115 14
115 8 0 18 5 21 10 4 6 -10 10 -34 10 -23 0 -41 -4 -41 -10 0 -5 7 -10 15 -10
12 0 15 -19 15 -115 0 -96 -3 -115 -15 -115 -8 0 -15 -4 -15 -10 0 -5 7 -10
15 -10 8 0 15 -7 15 -15 0 -8 -9 -15 -20 -15 -19 0 -20 7 -22 153 -1 83 -3
126 -5 95 -4 -54 -6 -58 -28 -58 -22 0 -24 4 -28 58 l-3 57 -2 -62 c-2 -56 -4
-63 -22 -63 -17 0 -20 7 -20 50 0 38 4 50 15 50 8 0 15 4 15 9 0 5 -22 8 -50
8 l-50 -2 0 -57 c0 -36 -5 -58 -12 -61 -10 -4 -10 -6 0 -6 8 -1 12 -21 12 -66
l0 -65 -50 0 -50 0 0 110 c0 103 -1 110 -20 110 -18 0 -20 7 -20 55 0 52 1 55
25 55 19 0 23 4 18 17 -4 11 -8 12 -11 5 -2 -7 -12 -12 -23 -12 -18 0 -19 -9
-19 -175 l0 -175 74 0 c74 0 75 0 79 -27 l4 -28 2 28 c1 22 6 27 26 27 20 0
25 -5 25 -23 0 -20 4 -23 30 -19 21 3 30 10 30 23 0 14 7 19 25 19 18 0 25 -5
25 -20 0 -18 7 -20 60 -20 53 0 60 2 60 20 0 13 7 20 20 20 13 0 20 -7 20 -20
0 -18 7 -20 60 -20 53 0 60 2 60 20 0 15 7 20 25 20 18 0 25 -5 25 -20 0 -16
7 -20 30 -20 23 0 30 4 30 20 0 18 7 20 85 20 l85 0 0 325 c0 318 0 325 20
325 17 0 20 7 20 50 l0 50 -80 0 -80 0 0 -39z m-10 -140 c0 -10 -7 -22 -16
-25 -23 -9 -24 -8 -24 19 0 18 5 25 20 25 13 0 20 -7 20 -19z m0 -161 c0 -5
-9 -10 -20 -10 -11 0 -20 5 -20 10 0 6 9 10 20 10 11 0 20 -4 20 -10z m-540
-170 c0 -5 -11 -10 -25 -10 -14 0 -25 5 -25 10 0 6 11 10 25 10 14 0 25 -4 25
-10z m-170 -45 c0 -16 -6 -25 -15 -25 -9 0 -15 9 -15 25 0 16 6 25 15 25 9 0
15 -9 15 -25z m170 10 c0 -9 -9 -15 -25 -15 -16 0 -25 6 -25 15 0 9 9 15 25
15 16 0 25 -6 25 -15z m-10 -45 c18 -12 2 -12 -25 0 -13 6 -15 9 -5 9 8 0 22
-4 30 -9z m-160 -15 c0 -8 -7 -15 -15 -15 -8 0 -15 7 -15 15 0 8 7 15 15 15 8
0 15 -7 15 -15z m280 -64 c0 -58 -1 -60 -27 -63 -20 -2 -29 -9 -31 -25 -4 -26
-42 -33 -42 -8 0 8 7 15 15 15 8 0 15 5 15 10 0 6 -7 10 -15 10 -12 0 -15 13
-15 60 l0 60 50 0 50 0 0 -59z m-280 29 c0 -5 -7 -10 -15 -10 -8 0 -15 5 -15
10 0 6 7 10 15 10 8 0 15 -4 15 -10z m147 4 c-3 -3 -12 -4 -19 -1 -8 3 -5 6 6
6 11 1 17 -2 13 -5z m20 -20 c-3 -3 -12 -4 -19 -1 -8 3 -5 6 6 6 11 1 17 -2
13 -5z m-170 -10 c-3 -3 -12 -4 -19 -1 -8 3 -5 6 6 6 11 1 17 -2 13 -5z m3
-24 c0 -5 -7 -10 -15 -10 -8 0 -15 5 -15 10 0 6 7 10 15 10 8 0 15 -4 15 -10z
m170 -15 c0 -20 -5 -25 -25 -25 -43 0 -31 46 13 49 6 1 12 -10 12 -24z"/>
<path d="M123 765 c0 -27 2 -38 4 -22 2 15 2 37 0 50 -2 12 -4 0 -4 -28z"/>
<path d="M165 800 c-3 -5 1 -10 10 -10 9 0 13 5 10 10 -3 6 -8 10 -10 10 -2 0
-7 -4 -10 -10z"/>
<path d="M224 794 c3 -9 6 -30 7 -47 0 -18 3 -26 6 -19 2 6 16 12 29 12 23 0
24 -2 24 -84 0 -76 -2 -85 -20 -88 -15 -2 -17 -7 -10 -18 9 -13 11 -13 21 0 8
11 9 6 7 -22 -4 -35 -2 -38 22 -37 16 1 19 3 8 6 -16 4 -18 19 -18 124 0 99 3
119 15 119 8 0 15 5 15 10 0 6 -6 10 -14 10 -8 0 -17 6 -19 13 -4 10 -6 10 -6
0 -1 -7 -12 -13 -26 -13 -20 0 -25 5 -25 25 0 14 -5 25 -11 25 -6 0 -8 -7 -5
-16z"/>
<path d="M303 793 c9 -2 25 -2 35 0 9 3 1 5 -18 5 -19 0 -27 -2 -17 -5z"/>
<path d="M423 793 c28 -4 39 -33 12 -33 -8 0 -15 -4 -15 -10 0 -5 7 -10 15
-10 12 0 15 -20 15 -119 0 -105 -2 -120 -17 -124 -10 -3 2 -5 27 -4 25 0 35 2
23 4 -22 4 -23 8 -23 124 0 112 1 119 20 119 11 0 20 5 20 10 0 6 -9 10 -20
10 -30 0 -24 28 8 33 15 2 0 4 -33 4 -33 0 -48 -2 -32 -4z"/>
<path d="M588 793 c35 -5 46 -33 12 -33 -11 0 -20 -4 -20 -10 0 -5 9 -10 20
-10 19 0 20 -7 20 -119 0 -116 -1 -120 -22 -124 -13 -2 -3 -4 22 -4 25 -1 37
1 28 4 -16 4 -18 19 -18 124 0 99 3 119 15 119 8 0 15 5 15 10 0 6 -7 10 -15
10 -27 0 -16 29 13 33 15 2 -2 4 -38 4 -36 0 -50 -2 -32 -4z"/>
<path d="M343 635 c0 -82 2 -124 4 -92 4 53 6 57 28 57 22 0 24 -4 28 -57 l3
-58 2 63 2 62 -30 0 -30 0 0 65 0 65 30 0 c25 0 30 4 29 23 0 12 -3 16 -6 10
-2 -7 -15 -13 -28 -13 -13 0 -26 6 -28 13 -3 6 -5 -55 -4 -138z"/>
<path d="M513 635 c0 -82 2 -124 4 -92 3 48 7 57 23 57 16 0 20 -9 23 -57 l3
-58 2 63 c2 60 1 62 -23 62 -24 0 -25 2 -25 65 0 63 1 65 25 65 19 0 25 5 24
23 0 12 -3 16 -6 10 -2 -7 -13 -13 -23 -13 -10 0 -21 6 -23 13 -3 6 -5 -55 -4
-138z"/>
<path d="M228 570 c-2 -44 0 -80 5 -80 4 0 7 36 7 80 0 44 -2 80 -4 80 -3 0
-6 -36 -8 -80z"/>
<path d="M122 615 c0 -16 2 -22 5 -12 2 9 2 23 0 30 -3 6 -5 -1 -5 -18z"/>
<path d="M178 493 c7 -3 16 -2 19 1 4 3 -2 6 -13 5 -11 0 -14 -3 -6 -6z"/>
<path d="M805 130 c3 -5 12 -7 20 -3 21 7 19 13 -6 13 -11 0 -18 -4 -14 -10z"/>
<path d="M858 133 c6 -2 18 -2 25 0 6 3 1 5 -13 5 -14 0 -19 -2 -12 -5z"/>
</g>
</svg>
